<?xml version="1.0" encoding="iso-8859-1"?>
<!-- Generator: Adobe Illustrator 16.0.0, SVG Export Plug-In . SVG Version: 6.00 Build 0)  -->
<!DOCTYPE svg PUBLIC "-//W3C//DTD SVG 1.1//EN" "http://www.w3.org/Graphics/SVG/1.1/DTD/svg11.dtd">
<svg version="1.1" id="Capa_1" xmlns="http://www.w3.org/2000/svg" xmlns:xlink="http://www.w3.org/1999/xlink" x="0px" y="0px"
	 width="589.924px" height="589.925px" viewBox="0 0 589.924 589.925" style="enable-background:new 0 0 589.924 589.925;"
	 xml:space="preserve">
<g>
	<path d="M514.067,148.209c-24.199-4.9-47.1,10.4-66.399,23.3c-9.5,6.4-35.5,27.2-60,39.5c-4.3,1.2-8.3,3.1-12.5,5.2
		c-13.5,4.6-25.4,5.2-32.7-3.1c48.3-17.7,84.5-55.7,71-117.5c-18.4-83.8-114.8-119-187.9-79.3c-78.3,42.2-58.8,193.7,13.8,203.5
		c-18.7,15.6-66.4-21.1-82-31.2c-21.4-13.8-41.6-31.8-68.2-28.5c-41,4.9-36.7,34.3-21.1,62.1c0,0,0,0.3,0.3,0.3
		c10.7,19,26.9,37,37,45.6c13.8,11.3,30.6,19.3,45.6,28.801c35.8,22.6,31.2,61.199,19,95.799c-10.4,28.801-26.6,54.201-37,81.701
		c-3.4,1.5-4.6,6.1-3.1,9.199c-3.1,9.5-5.2,19.301-6.1,29.699c-0.3,1.201-0.6,2.801-0.3,4c-0.3,4.301-0.3,8.301,0,12.5
		c1.5,25.102,24.5,52.301,50.8,52.9c36.7,0.9,61.2-20.199,74.4-53.9c8.3-21.1,36.4-123.898,62.701-71
		c14.399,29.102,20.8,62.102,34.3,91.801c29.1,63,102.5,46.801,125.8-11.6c15.3-38.6-23.6-87.5-37.3-119.6
		c-13.8-32.4-30.9-67-25.101-102.801c4-24.5,53.2-39.2,70.4-53.6C492.667,249.509,567.368,158.609,514.067,148.209z M99.167,238.809
		c-5.2-4.9-10.1-10.1-14.7-16.2c15.9-6.4,30.6-18.7,34.3-35.5c0-0.6,0-0.9,0-1.5c0.9,0.6,1.8,1.2,2.8,1.5c5.2,3.1,10.4,6.4,15.6,9.8
		C132.867,218.009,117.567,229.309,99.167,238.809z M220.067,541.709c-0.6-0.9-1.5-1.5-2.4-2.4c-23.6-16.799-51.1-25.699-79.3-32.1
		c1.2-7,3.1-14.4,5.5-22c31.8-1.5,62.1,10.1,87.5,29.1c0.6,0.301,0.9,0.602,1.5,0.9C229.267,524.91,224.967,534.109,220.067,541.709
		z M331.767,66.209c7.7,1.2,13.8,6.1,16.5,13.8c2.4,6.1,3.101,15.9-4.6,18.4c-9.5,3.4-21.4-1.2-21.101-12.2
		C322.868,79.409,326.868,72.009,331.767,66.209z M234.767,94.109c-4.3-11,2.8-20.2,11.3-26.3c0.3,0,0.3-0.3,0.3-0.3
		c7.6-0.6,13.8-1.2,19,7.6c4.9,8.6,0.9,17.7-7,22.3C250.667,102.009,238.367,104.509,234.767,94.109z M230.767,155.309
		c0.3-0.3,0.9-0.6,1.2-1.2c12.2-18.1,28.8,1.2,42.8,7.7c8.9,4.3,18.1,4.9,27.201,2.1c13.5-4,63.6-42.2,54.2-6.7
		c-6.4,24.2-46.5,26-65.801,25.4C268.067,181.909,243.967,173.609,230.767,155.309z M294.367,285.609c0.6,0.3,1.2,0.6,1.801,0.9
		c1.5,0.6,3.1,0.9,4.6,1.2c3.7,7.3,12.9,10.4,14.101,19.3c0.899,7.699-4,12.9-11.301,13.5c-9.2,0.9-22.6-3.4-23.2-14.4
		C279.767,297.91,287.067,289.609,294.367,285.609z M315.567,360.91c-2.1,8.299-11,12.898-19,13.199
		c-10.4,0.301-22.6-6.699-25.1-16.801c-2.8-11,10.4-17.1,18.7-19.898c3.1,0.898,6.1,1.5,8.9,1.799c0.301,0,0.301,0,0.601,0
		c0.6,0.9,1.5,1.801,2.8,2.4C310.368,345.91,317.967,350.809,315.567,360.91z M315.868,258.109c-0.301,2.4-1.5,6.1-4,9.5
		c-0.601,0.9-2.801,2.4-5.2,2.4c-4.601,0-10.7-3.7-15-8c-8-8-4.6-16.5,0.9-24.2c2.8-1.2,5.801-2.4,8.9-3.1c0.9-0.3,4,0,4.3,0
		s2.101,0.6,2.4,0.9c0.6,0.3,1.5,0.9,1.8,0.9c2.8,2.4,4.3,4.9,5.2,8.6C316.167,249.509,316.467,252.609,315.868,258.109z
		 M445.868,484.809c3.699,8.9,6.399,17.4,7.3,26.301h-0.3c-33,0.9-67.301,11.9-90.601,35.801l0,0c-4.6-7.602-8.6-16.201-11.6-25.102
		c17.399-10.1,35.8-18.398,55.1-24.799C418.067,492.809,434.267,491.91,445.868,484.809z M479.267,235.709c-3.1-4-9.5-7.3-13.2-9.8
		c-10.399-7-19.3-18.4-24.5-30c1.2-0.9,2.801-1.8,4-2.8c5.2-3.7,10.101-7,15.301-10.1c3.399,16.2,17.699,29.4,33.399,35.5
		C489.967,225.009,484.767,230.509,479.267,235.709z"/>
</g>
<g>
</g>
<g>
</g>
<g>
</g>
<g>
</g>
<g>
</g>
<g>
</g>
<g>
</g>
<g>
</g>
<g>
</g>
<g>
</g>
<g>
</g>
<g>
</g>
<g>
</g>
<g>
</g>
<g>
</g>
</svg>
